Coordinates
version=1
nRows=24
nColumns=24
inDegrees=yes

Units are S.I. units (second, meters, Newtons, ...)
Angles are in degrees.

endheader
time	pelvis_tilt	pelvis_list	pelvis_rotation	pelvis_tx	pelvis_ty	pelvis_tz	hip_flexion_r	hip_adduction_r	hip_rotation_r	knee_angle_r	ankle_angle_r	subtalar_angle_r	mtp_angle_r	hip_flexion_l	hip_adduction_l	hip_rotation_l	knee_angle_l	ankle_angle_l	subtalar_angle_l	mtp_angle_l	lumbar_extension	lumbar_bending	lumbar_rotation
      0.97466667	      0.74960959	      0.32542701	      2.74051798	     -0.08122531	      1.00964079	      0.28964996	    -17.91937995	      2.36633479	     -2.43647225	     -7.08034459	      8.19350576	     -2.91238974	      3.01027613	     16.72170506	      2.86179842	      6.66246298	      0.92219188	      2.96170407	     -4.43172437	     -1.61955772	    -13.94725468	      5.18678184	      4.97086868
      0.97883333	      0.74906470	      0.38731070	      2.71700448	     -0.07547316	      1.00905005	      0.28925884	    -17.96073901	      2.25290330	     -2.52639595	     -7.69099007	      8.20858449	     -2.72008086	      3.11540812	     16.65789210	      3.00544260	      6.84347006	      0.84118019	      2.83249676	     -4.43493878	     -1.62223876	    -13.92310041	      5.09753153	      4.92074182
      0.98300000	      0.75155333	      0.44532443	      2.69514119	     -0.06971204	      1.00849616	      0.28888786	    -18.00772779	      2.15283764	     -2.53234691	     -8.28391983	      8.09609157	     -2.74706229	      3.14876057	     16.61025446	      3.14709925	      6.99306732	      0.64806588	      2.70842895	     -4.41580309	     -1.62143562	    -13.91177758	      5.02609695	      4.89392043
      0.98716667	      0.71847913	      0.53282878	      2.67138795	     -0.06393218	      1.00788939	      0.28845880	    -17.94372096	      1.99786057	     -2.68276329	     -9.04449090	      8.17200740	     -2.38824596	      3.36453630	     16.57945347	      3.32726382	      7.26348087	      0.43018648	      2.44923709	     -4.64807313	     -1.60583202	    -13.84155600	      4.90256954	      4.80246747
      0.99133333	      0.72919776	      0.63365378	      2.65316302	     -0.05812762	      1.00738179	      0.28804627	    -17.93487240	      1.84019928	     -2.77996970	     -9.77817038	      8.12258103	     -2.22558007	      3.66957669	     16.50661555	      3.52011396	      7.50904132	      0.14111475	      2.16720122	     -4.89225943	     -1.57658948	    -13.82456704	      4.77092973	      4.71852842
      0.99550000	      0.69658217	      0.72000577	      2.63815103	     -0.05232936	      1.00684330	      0.28762526	    -17.85300416	      1.69686193	     -2.84850581	    -10.55586720	      8.02264608	     -2.11101797	      4.06526757	     16.50022355	      3.70393925	      7.75631886	     -0.23824222	      1.86667198	     -5.16803483	     -1.53357795	    -13.76094633	      4.66025910	      4.64459678
      0.99966667	      0.72173992	      0.82641977	      2.63326750	     -0.04650605	      1.00640785	      0.28720441	    -17.84115230	      1.54380800	     -2.89267439	    -11.29933728	      7.76179272	     -2.20662641	      9.61702670	     16.43166398	      3.90890336	      8.00098341	     -0.66493784	      1.53415237	     -5.48013700	     -0.87158363	    -13.76918299	      4.52210634	      4.58781109
      1.00383333	      0.75523132	      0.95731895	      2.61095611	     -0.04065242	      1.00600242	      0.28678582	    -17.78891798	      1.34877259	     -3.00329196	    -12.15755104	      7.59294589	     -2.05017941	      9.68476153	     16.35914258	      4.13487622	      8.16109822	     -1.14544283	      1.20934439	     -5.71790268	     -0.87760684	    -13.77950740	      4.35821135	      4.46990198
      1.00800000	      0.74452415	      1.06315248	      2.60399546	     -0.03482238	      1.00555787	      0.28633664	    -17.66256522	      1.18372511	     -3.08464392	    -13.05677309	      7.38851967	     -1.97203302	      9.83088271	     16.34659022	      4.34465092	      8.38834698	     -1.67775326	      0.83450645	     -6.11617475	     -0.87683305	    -13.73867533	      4.22854592	      4.37671304
      1.01216667	      0.75803958	      1.18346834	      2.60289477	     -0.02897793	      1.00517739	      0.28587710	    -17.54790866	      1.00569832	     -3.17754412	    -13.97742739	      7.13581496	     -1.89471378	     10.11871668	     16.31054732	      4.57230785	      8.62142215	     -2.24450734	      0.42480340	     -6.59499802	     -0.86720375	    -13.73007861	      4.07939960	      4.26597647
      1.01633333	      0.76729080	      1.30393833	      2.58895916	     -0.02313239	      1.00481238	      0.28543405	    -17.38917172	      0.82151981	     -3.26250191	    -14.96782143	      6.83614299	     -1.85176225	     10.47783228	     16.28095247	      4.79454004	      8.81146969	     -2.83310423	      0.01064298	     -7.03861130	     -0.85492562	    -13.71175675	      3.93248970	      4.15980077
      1.02050000	      0.77025854	      1.42099339	      2.58270870	     -0.01728624	      1.00445923	      0.28496655	    -17.19986167	      0.64055000	     -3.35513008	    -15.99429601	      6.47892108	     -1.82930423	     10.98791573	     16.26837147	      5.01758576	      9.00587410	     -3.46036808	     -0.39998249	     -7.52902503	     -0.83667782	    -13.68723396	      3.79090680	      4.04088950
      1.02466667	      0.79358087	      1.55603536	      2.56858441	     -0.01143495	      1.00416093	      0.28450244	    -16.99993508	      0.43401495	     -3.46706792	    -17.07785913	      6.08011064	     -1.78963219	     11.74307645	     16.22794132	      5.25604894	      9.18930861	     -4.08974953	     -0.82754444	     -8.05633798	     -0.81500889	    -13.68799595	      3.63047612	      3.91862286
      1.02883333	      0.89020036	      1.70651491	      2.53394238	     -0.00555736	      1.00400877	      0.28410667	    -16.86996627	      0.21813684	     -3.53659942	    -18.14537123	      5.46672672	     -2.04473950	     18.50692177	     16.10615253	      5.49311947	      9.27567286	     -4.73032112	     -1.13709798	     -8.41290815	     -0.63644569	    -13.77963415	      3.42658118	      3.85016401
      1.03300000	      0.87390367	      1.83330565	      2.51206808	      0.00030470	      1.00371943	      0.28364545	    -16.56221641	      0.00909806	     -3.65574703	    -19.32644766	      4.90447540	     -2.02997899	     18.57087330	     16.13906895	      5.71752063	      9.32722702	     -5.44355024	     -1.43023663	     -8.70100502	     -0.64652244	    -13.72214771	      3.27800076	      3.72359512
      1.03716667	      0.90420770	      1.95676132	      2.48532532	      0.00612765	      1.00350781	      0.28318983	    -16.26920132	     -0.19824159	     -3.77836143	    -20.56040549	      4.33218711	     -2.04742977	     18.73176132	     16.11781000	      5.93714725	      9.41594809	     -6.15406996	     -1.71966192	     -9.13338494	     -0.66248752	    -13.72785945	      3.12412837	      3.59655632
      1.04133333	      0.94836906	      2.11260490	      2.44096981	      0.01197476	      1.00335388	      0.28275213	    -15.96324484	     -0.44744568	     -3.89635098	    -21.83679945	      3.67331824	     -2.10817481	     18.94674977	     16.06602517	      6.18291248	      9.48777773	     -6.84488224	     -1.96183815	     -9.50535378	     -0.68211091	    -13.75331221	      2.94662300	      3.47860051
      1.04550000	      0.99086297	      2.25396186	      2.39480227	      0.01779609	      1.00321891	      0.28232175	    -15.61964899	     -0.68672151	     -4.02156302	    -23.16093191	      2.95183947	     -2.17665836	     19.21821568	     16.02680546	      6.41235821	      9.53761170	     -7.56228275	     -2.13536975	     -9.86429728	     -0.70663592	    -13.77903132	      2.77331285	      3.36422925
      1.04966667	      1.00003487	      2.37020799	      2.34848251	      0.02354646	      1.00304458	      0.28185160	    -15.19708146	     -0.91005777	     -4.13708503	    -24.54409389	      2.20772648	     -2.21907630	     19.82437167	     16.05307454	      6.62570539	      9.59888571	     -8.34368962	     -2.28200447	    -10.29511865	     -0.76282089	    -13.77969184	      2.64822014	      3.23064122
      1.05383333	      1.14043343	      2.55978725	      2.26903017	      0.02938785	      1.00309892	      0.28144131	    -14.91083689	     -1.22471674	     -4.29851050	    -25.91053301	      1.24593473	     -2.38811606	     26.33063499	     15.87113472	      6.89200163	      9.63751213	     -9.00446483	     -2.31983452	    -10.60746626	     -1.38962648	    -13.92043637	      2.43668023	      3.06870264
      1.05800000	      1.28513827	      2.71684277	      2.17681844	      0.03515914	      1.00317576	      0.28105220	    -14.58925741	     -1.50762442	     -4.42177585	    -27.33499836	      0.32223223	     -2.50609073	     26.33828140	     15.72769332	      7.11964971	      9.57448989	     -9.75339156	     -2.23231688	    -10.80655764	     -1.38815404	    -14.08406978	      2.26831164	      3.00952407
      1.06216667	      1.24624233	      2.85801664	      2.08765520	      0.04089534	      1.00300468	      0.28066832	    -14.00673550	     -1.78662959	     -4.52463669	    -28.86920168	     -0.62874001	     -2.65278919	     26.45218248	     15.78737431	      7.33870377	      9.55905550	    -10.51439196	     -2.12124129	    -10.98721824	     -1.40166255	    -14.01619714	      2.08042085	      2.92104009
      1.06633333	      1.41304455	      3.03293417	      1.96855601	      0.04662893	      1.00314363	      0.28029911	    -13.64597145	     -2.11253596	     -4.65300829	    -30.37049212	     -1.64200397	     -2.75318384	     26.48315625	     15.59764897	      7.57869015	      9.50037430	    -11.22519319	     -1.93053523	    -11.19919002	     -1.40384593	    -14.20694358	      1.89735282	      2.82915757
      1.07050000	      1.40824216	      3.18746339	      1.85814998	      0.05232738	      1.00305462	      0.27993226	    -13.04881689	     -2.42424648	     -4.76067780	    -31.95255708	     -2.70740229	     -2.96201298	     26.66618241	     15.60213684	      7.80279063	      9.45504641	    -11.95236869	     -1.70135148	    -11.32129616	     -1.43891877	    -14.17104828	      1.71611030	      2.70864882
